<?xml version="1.0" encoding="UTF-8"?>
<svg version="1.1" xmlns="http://www.w3.org/2000/svg" width="225" height="225">
<path d="M0 0 C26.7826087 3.34782609 26.7826087 3.34782609 32.1875 7.375 C35.44372029 12.09090525 36.30766651 16.18372438 36.6875 21.875 C36.77386719 23.04804687 36.86023438 24.22109375 36.94921875 25.4296875 C37 29 37 29 36 36 C24.12 36 12.24 36 0 36 C0 24.12 0 12.24 0 0 Z " fill="#12396E" transform="translate(114,46)"/>
<path d="M0 0 C0.20056924 3.74941687 0.38295585 7.49952221 0.5625 11.25 C0.64661133 12.81621094 0.64661133 12.81621094 0.73242188 14.4140625 C1.06967203 21.69866595 0.77975283 28.75049402 0 36 C-4.96622349 36.02465098 -9.93241166 36.04283649 -14.89868164 36.05493164 C-16.58944316 36.0599719 -18.28020029 36.06680405 -19.97094727 36.07543945 C-22.39600707 36.08751857 -24.82100944 36.09323123 -27.24609375 36.09765625 C-28.38672523 36.10539818 -28.38672523 36.10539818 -29.55039978 36.11329651 C-31.3673257 36.11349238 -33.18413127 36.06197277 -35 36 C-37.18794317 33.81205683 -36.27854848 28.96371179 -36.3125 25.9375 C-36.34150391 25.10283203 -36.37050781 24.26816406 -36.40039062 23.40820312 C-36.46874847 16.66180955 -34.9575848 11.60093134 -30.64306641 6.34790039 C-28.61605886 4.68503134 -27.11222558 4.34402214 -24.54296875 3.8671875 C-23.67736328 3.70089844 -22.81175781 3.53460938 -21.91992188 3.36328125 C-20.56737305 3.12158203 -20.56737305 3.12158203 -19.1875 2.875 C-18.29740234 2.70613281 -17.40730469 2.53726563 -16.49023438 2.36328125 C-13.99596207 1.89364065 -11.49918049 1.44267877 -9 1 C-7.86175781 0.79632813 -6.72351563 0.59265625 -5.55078125 0.3828125 C-3 0 -3 0 0 0 Z " fill="#11396D" transform="translate(106,46)"/>
<path d="M0 0 C11.22 0 22.44 0 34 0 C34.9008718 4.50435898 35.152678 8.57493369 35.125 13.125 C35.12306641 13.8989209 35.12113281 14.6728418 35.11914062 15.47021484 C35.05522363 24.32804549 34.54875912 33.16105842 34 42 C33.55849609 41.61835693 33.11699219 41.23671387 32.66210938 40.84350586 C28.99201184 37.68243232 25.28007246 34.59211689 21.5 31.5625 C12.23609569 23.95648021 3.88343656 15.70714046 0 4 C0 2.68 0 1.36 0 0 Z " fill="#11396E" transform="translate(72,88)"/>
<path d="M0 0 C11.22 0 22.44 0 34 0 C35 2 35 2 34.50390625 4.03125 C28.94487021 18.60930302 14.01331267 34.99334366 0 42 C0 28.14 0 14.28 0 0 Z " fill="#6AA848" transform="translate(114,88)"/>
<path d="M0 0 C1.9171582 0.30744141 1.9171582 0.30744141 3.87304688 0.62109375 C5.10216797 0.83378906 6.33128906 1.04648437 7.59765625 1.265625 C9.24713257 1.54841309 9.24713257 1.54841309 10.92993164 1.83691406 C15.14142358 3.11550647 17.97207267 5.1627239 20.265625 8.93359375 C20.56984375 9.67738281 20.8740625 10.42117187 21.1875 11.1875 C21.50203125 11.92871094 21.8165625 12.66992188 22.140625 13.43359375 C26.73681502 26.7940873 23.89568814 41.98816623 18.72265625 54.74609375 C11.8669159 68.43770275 -0.29992949 80.44168294 -12.625 89.25 C-13.35396484 89.79914063 -14.08292969 90.34828125 -14.83398438 90.9140625 C-20.12556213 94.70532793 -20.12556213 94.70532793 -24.17578125 94.8984375 C-27.83889246 93.44112397 -30.68397522 91.36882031 -33.6875 88.875 C-34.29360107 88.38249756 -34.89970215 87.88999512 -35.52416992 87.38256836 C-37.3852062 85.85530885 -39.22641095 84.30712662 -41.0625 82.75 C-41.88886963 82.05559814 -41.88886963 82.05559814 -42.73193359 81.34716797 C-58.25009963 68.1798066 -68.51752057 53.14689168 -70.34765625 32.5390625 C-70.61312792 23.55919455 -69.06839507 14.729824 -63.0625 7.75 C-57.44948942 3.32473122 -51.89508345 1.66828988 -44.9375 0.5 C-44.06996094 0.34015625 -43.20242187 0.1803125 -42.30859375 0.015625 C-39.89592257 -0.42504554 -37.48119743 -0.84383671 -35.0625 -1.25 C-34.10867432 -1.42724609 -33.15484863 -1.60449219 -32.17211914 -1.78710938 C-21.36072344 -3.39646843 -10.668325 -1.89142932 0 0 Z M-40.125 2 C-41.25744141 2.20496094 -42.38988281 2.40992188 -43.55664062 2.62109375 C-54.22259145 4.60551621 -54.22259145 4.60551621 -62.90234375 10.75 C-63.26457031 11.41 -63.62679687 12.07 -64 12.75 C-64.38027344 13.41 -64.76054688 14.07 -65.15234375 14.75 C-69.76785041 24.89222922 -67.97419888 39.83657808 -64.3125 49.90625 C-58.16382146 63.89449367 -48.0964776 74.5937127 -36.0625 83.75 C-34.99756321 84.62203261 -33.93512503 85.49712406 -32.875 86.375 C-31.81324724 87.23009533 -30.75076463 88.08428533 -29.6875 88.9375 C-28.73101562 89.71480469 -27.77453125 90.49210937 -26.7890625 91.29296875 C-24.19297098 93.0528068 -24.19297098 93.0528068 -21.56640625 92.2421875 C-4.94683463 82.33785621 13.55744584 66.47823726 19.30859375 47.3515625 C22.41797112 34.48916914 24.14921837 19.6092702 16.9375 7.75 C13.5974865 4.63011476 10.53659797 4.07047202 6.08203125 3.36328125 C5.42095871 3.25654587 4.75988617 3.14981049 4.07878113 3.0398407 C2.68188583 2.81688407 1.28408554 2.59953404 -0.11450195 2.38745117 C-2.22788761 2.06586476 -4.33743145 1.72489429 -6.44726562 1.38085938 C-18.3881574 -0.52493782 -28.2181416 -0.32561141 -40.125 2 Z " fill="#122948" transform="translate(133.0625,42.25)"/>
<path d="M0 0 C0.61875 0.165 1.2375 0.33 1.875 0.5 C4.87482646 1.20584152 5.9906231 1.00312563 9 0 C11 2 11 2 11.1953125 4.3828125 C11.17210937 5.28773438 11.14890625 6.19265625 11.125 7.125 C11.10695312 8.03507813 11.08890625 8.94515625 11.0703125 9.8828125 C11.04710937 10.58148438 11.02390625 11.28015625 11 12 C11.42925781 11.50886719 11.85851562 11.01773438 12.30078125 10.51171875 C14 9 14 9 17.1875 8.8125 C18.115625 8.874375 19.04375 8.93625 20 9 C20.33 8.34 20.66 7.68 21 7 C23.88575819 7.39803561 24.82189513 7.79009069 26.75 10.0625 C27.1625 10.701875 27.575 11.34125 28 12 C28.4125 11.030625 28.825 10.06125 29.25 9.0625 C31 6 31 6 33.1875 5.125 C34.0846875 5.063125 34.0846875 5.063125 35 5 C35 5.99 35 6.98 35 8 C34.34 8 33.68 8 33 8 C33.495 9.485 33.495 9.485 34 11 C34.66 10.34 35.32 9.68 36 9 C39.125 8.875 39.125 8.875 42 9 C42.495 10.485 42.495 10.485 43 12 C43.99 11.67 44.98 11.34 46 11 C45.43272862 14.97089963 44.51333018 17.83857838 42 21 C38.96875 21.48828125 38.96875 21.48828125 35.5 21.3125 C33.78296875 21.24482422 33.78296875 21.24482422 32.03125 21.17578125 C30.53078125 21.08876953 30.53078125 21.08876953 29 21 C28.01 21 27.02 21 26 21 C24.66431979 20.67619874 23.33076989 20.34342449 22 20 C19.96489079 19.93278236 19.96489079 19.93278236 17.875 20.4375 C16.92625 20.623125 15.9775 20.80875 15 21 C14.01 21.19529297 14.01 21.19529297 13 21.39453125 C10.875 21.75 10.875 21.75 7 22 C5.25 20.5625 5.25 20.5625 4 19 C2.68 19 1.36 19 0 19 C-0.66 19 -1.32 19 -2 19 C-2.33 19.66 -2.66 20.32 -3 21 C-3.99 20.67 -4.98 20.34 -6 20 C-4.9706067 12.75361298 -3.32399717 6.53504298 0 0 Z M19 13 C20 15 20 15 20 15 Z M32 13 C33 15 33 15 33 15 Z M37 13 C38 15 38 15 38 15 Z M26 14 C27 16 27 16 27 16 Z M14 15 C15 17 15 17 15 17 Z M36 16 C37 18 37 18 37 18 Z " fill="#092D5B" transform="translate(156,163)"/>
<path d="M0 0 C2 2 2 2 2.375 4.375 C2 7 2 7 0.25 9.375 C-2 11 -2 11 -4.25 10.75 C-5.11625 10.37875 -5.11625 10.37875 -6 10 C-5.360625 9.21625 -4.72125 8.4325 -4.0625 7.625 C-2.01857687 5.20460719 -2.01857687 5.20460719 -1 3 C-2.98 3.66 -4.96 4.32 -7 5 C-6.58413646 9.2787981 -6.58413646 9.2787981 -4.4375 12.875 C-3.963125 13.24625 -3.48875 13.6175 -3 14 C-2.46375 13.175 -1.9275 12.35 -1.375 11.5 C1 9 1 9 4.25 8.6875 C5.1575 8.790625 6.065 8.89375 7 9 C7.33 9.99 7.66 10.98 8 12 C8.66 11.01 9.32 10.02 10 9 C11.9453125 8.48828125 11.9453125 8.48828125 14.125 8.3125 C15.40375 8.209375 16.6825 8.10625 18 8 C18.66 9.65 19.32 11.3 20 13 C20.59732819 10.23735711 21 7.83967231 21 5 C22.3125 3.3125 22.3125 3.3125 24 2 C24.99 2 25.98 2 27 2 C27 2.99 27 3.98 27 5 C27.66 5 28.32 5 29 5 C29 5.99 29 6.98 29 8 C28.01 8 27.02 8 26 8 C26 9.32 26 10.64 26 12 C26.37125 11.505 26.7425 11.01 27.125 10.5 C29.74694393 8.40244486 31.73842472 8.78256165 35 9 C35 10.32 35 11.64 35 13 C35.33 12.34 35.66 11.68 36 11 C36.99 11 37.98 11 39 11 C36.88776625 18.14909885 36.88776625 18.14909885 34 21 C30.93359375 21.390625 30.93359375 21.390625 27.4375 21.25 C26.28121094 21.21390625 25.12492187 21.1778125 23.93359375 21.140625 C22.96550781 21.09421875 21.99742187 21.0478125 21 21 C20.34 21 19.68 21 19 21 C17.68 21 16.36 21 15 21 C15 20.34 15 19.68 15 19 C13.35 19.66 11.7 20.32 10 21 C9.67 20.01 9.34 19.02 9 18 C8.67 18.495 8.34 18.99 8 19.5 C4.81279065 21.89040701 1.92376607 21.186846 -2 21 C-4.24742639 20.93346517 -4.24742639 20.93346517 -7.375 21.6875 C-11 22 -11 22 -13.4375 20.5625 C-13.953125 20.046875 -14.46875 19.53125 -15 19 C-13.63016497 15.83884224 -13.0109362 15.0072908 -10 13 C-10.66 12.01 -11.32 11.02 -12 10 C-12.5 7.0625 -12.5 7.0625 -12 4 C-8.14345777 0.51074751 -5.17687429 -0.7059374 0 0 Z M2 13 C3 15 3 15 3 15 Z M-9 14 C-9.33 15.65 -9.66 17.3 -10 19 C-8.68 18.67 -7.36 18.34 -6 18 C-6.66 16.68 -7.32 15.36 -8 14 C-8.33 14 -8.66 14 -9 14 Z M14 15 C15 18 15 18 15 18 Z M29 15 C30 17 30 17 30 17 Z " fill="#0C2D5A" transform="translate(108,163)"/>
<path d="M0 0 C11.34547383 -0.49328147 11.34547383 -0.49328147 14.41015625 1.81640625 C16 4 16 4 15.6875 7.1875 C15.460625 8.115625 15.23375 9.04375 15 10 C15.33 10.33 15.66 10.66 16 11 C16.4603413 16.29392491 16.4603413 16.29392491 14.90234375 18.68359375 C10.83715841 21.49666862 4.67427104 20.13883973 0 20 C0 13.4 0 6.8 0 0 Z M6 5 C6.33 5.99 6.66 6.98 7 8 C7.66 7.67 8.32 7.34 9 7 C9 6.34 9 5.68 9 5 C8.01 5 7.02 5 6 5 Z M6 13 C6 13.66 6 14.32 6 15 C7.32 14.67 8.64 14.34 10 14 C8.68 13.67 7.36 13.34 6 13 Z " fill="#6EA054" transform="translate(115,139)"/>
<path d="M0 0 C1.32 0 2.64 0 4 0 C4.33 1.32 4.66 2.64 5 4 C5.37125 3.505 5.7425 3.01 6.125 2.5 C8.74694393 0.40244486 10.73842472 0.78256165 14 1 C14.33 1.99 14.66 2.98 15 4 C15.99 3.67 16.98 3.34 18 3 C17.3738876 7.06973063 15.716903 9.9347761 13 13 C10.16029629 13.56107049 7.93869779 13.27987598 5 13 C4.01 13 3.02 13 2 13 C0.88625 12.814375 -0.2275 12.62875 -1.375 12.4375 C-4.87785589 11.82337535 -4.87785589 11.82337535 -7.8125 12.5625 C-8.534375 12.706875 -9.25625 12.85125 -10 13 C-10.66 12.34 -11.32 11.68 -12 11 C-11.72317437 6.75534029 -10.81645906 4.18382329 -8 1 C-6.35 1.33 -4.7 1.66 -3 2 C-3 2.66 -3 3.32 -3 4 C-2.34 4 -1.68 4 -1 4 C-0.67 2.68 -0.34 1.36 0 0 Z M-7 4 C-6 7 -6 7 -6 7 Z M13 5 C14 7 14 7 14 7 Z " fill="#092B58" transform="translate(48,171)"/>
<path d="M0 0 C4.62 0 9.24 0 14 0 C14.33 1.65 14.66 3.3 15 5 C14.34 5.66 13.68 6.32 13 7 C12.83312552 9.58354218 12.83312552 9.58354218 13 12 C11.35 12.66 9.7 13.32 8 14 C10.31 14.33 12.62 14.66 15 15 C15 16.65 15 18.3 15 20 C10.05 20 5.1 20 0 20 C0 13.4 0 6.8 0 0 Z " fill="#6C9D54" transform="translate(92,139)"/>
<path d="M0 0 C16 2 16 2 21 3 C21 3.66 21 4.32 21 5 C19.31229485 4.85656032 17.62484514 4.71011431 15.9375 4.5625 C14.99777344 4.48128906 14.05804688 4.40007813 13.08984375 4.31640625 C9.71570315 3.97088743 6.35769622 3.47967089 3 3 C3 13.23 3 23.46 3 34 C11.7055979 33.96050687 11.7055979 33.96050687 20.41113281 33.90991211 C21.49749023 33.90741455 22.58384766 33.90491699 23.703125 33.90234375 C25.36843262 33.89448853 25.36843262 33.89448853 27.06738281 33.88647461 C29.57157379 33.98341507 31.6181156 34.26769724 34 35 C34.2038209 27.03966159 34.20198542 19.68283965 32 12 C31.66339034 10.66749003 31.32914542 9.33437333 31 8 C28.69 7.67 26.38 7.34 24 7 C23.67 6.01 23.34 5.02 23 4 C26.87125927 4.27008786 28.70589359 4.75936748 31.75 7.25 C35.54111586 11.88358605 36.29295785 15.96333571 36.6875 21.875 C36.77386719 23.04804687 36.86023438 24.22109375 36.94921875 25.4296875 C37 29 37 29 36 36 C24.12 36 12.24 36 0 36 C0 24.12 0 12.24 0 0 Z " fill="#0F2E5A" transform="translate(114,46)"/>
<path d="M0 0 C2.56087473 1.88696032 3.70816698 3.21429573 4.8125 6.1875 C4.874375 6.785625 4.93625 7.38375 5 8 C4 9 4 9 1.625 9.25 C-1 9 -1 9 -2.8125 7.5 C-3.204375 7.005 -3.59625 6.51 -4 6 C-4.72256829 10.48133574 -4.72256829 10.48133574 -5 15 C-4.01 15 -3.02 15 -2 15 C-2 14.01 -2 13.02 -2 12 C-0.02 12 1.96 12 4 12 C4.33 12.66 4.66 13.32 5 14 C2.68421053 18.31578947 2.68421053 18.31578947 1 20 C-2.05325078 20.43352445 -4.95065922 20.46995094 -8 20 C-10.88667626 17.54632518 -11.77300412 15.69612069 -12.9375 12.125 C-13.01855762 8.07211881 -11.90956429 5.54633368 -10 2 C-6.2794164 -0.48038907 -4.40203429 -0.46337203 0 0 Z " fill="#6AA24B" transform="translate(79,139)"/>
<path d="M0 0 C1.32 0.33 2.64 0.66 4 1 C3.67 3.31 3.34 5.62 3 8 C3.99 7.34 4.98 6.68 6 6 C8.125 6.25 8.125 6.25 10 7 C10.33 7.66 10.66 8.32 11 9 C11.66 9 12.32 9 13 9 C12.72967641 12.1537752 11.9491625 14.08472916 10.3125 16.8125 C5.00717992 20.31601326 -0.81181416 19.56698038 -7 19 C-8 18 -8 18 -8.25 14.6875 C-7.99178534 10.87883379 -7.69676259 9.59688249 -5 7 C-4.01 6.67 -3.02 6.34 -2 6 C-0.77479736 2.99152582 -0.77479736 2.99152582 0 0 Z M1 10 C2 12 2 12 2 12 Z M-4 12 C-3 14 -3 14 -3 14 Z " fill="#0C2B57" transform="translate(77,165)"/>
<path d="M0 0 C1.98 0 3.96 0 6 0 C12 12.84466019 12 12.84466019 12 20 C10.02 20 8.04 20 6 20 C5.67 19.34 5.34 18.68 5 18 C2.97536745 17.34786708 2.97536745 17.34786708 1 17 C0.67 17.99 0.34 18.98 0 20 C-1.98 20 -3.96 20 -6 20 C-4.38808348 13.14078075 -2.64031672 6.53792711 0 0 Z M2 9 C3 11 3 11 3 11 Z " fill="#69A247" transform="translate(144,139)"/>
<path d="M0 0 C11.22 0 22.44 0 34 0 C34.9008718 4.50435898 35.152678 8.57493369 35.125 13.125 C35.12306641 13.8989209 35.12113281 14.6728418 35.11914062 15.47021484 C35.05522363 24.32804549 34.54875912 33.16105842 34 42 C33.55849609 41.61835693 33.11699219 41.23671387 32.66210938 40.84350586 C28.99201184 37.68243232 25.28007246 34.59211689 21.5 31.5625 C9.67532352 21.90107245 9.67532352 21.90107245 7 16 C9.31 16.33 11.62 16.66 14 17 C14.144375 17.598125 14.28875 18.19625 14.4375 18.8125 C15.49893185 22.94029055 16.51545357 24.70759145 19.75 27.4375 C20.471875 28.04722656 21.19375 28.65695313 21.9375 29.28515625 C22.9584375 30.13400391 22.9584375 30.13400391 24 31 C24.9075 31.78375 25.815 32.5675 26.75 33.375 C29.10832228 35.29014897 29.10832228 35.29014897 33 36 C33 24.78 33 13.56 33 2 C22.77 2 12.54 2 2 2 C3.32 5.3 4.64 8.6 6 12 C5.01 12.495 5.01 12.495 4 13 C3.32404685 11.58774074 2.65959941 10.16997095 2 8.75 C1.62875 7.96109375 1.2575 7.1721875 0.875 6.359375 C0 4 0 4 0 0 Z " fill="#0D2957" transform="translate(72,88)"/>
<path d="M0 0 C2.4375 2 2.4375 2 4 4 C2.80086322 8.39683488 1.5711885 11.09840934 -2 14 C-2.66 14 -3.32 14 -4 14 C-3.01 16.31 -2.02 18.62 -1 21 C-2.875 21.625 -2.875 21.625 -5 22 C-5.66 21.34 -6.32 20.68 -7 20 C-7.33 20.66 -7.66 21.32 -8 22 C-9.32 21.67 -10.64 21.34 -12 21 C-12 10.5 -12 10.5 -10 6 C-11.32 6 -12.64 6 -14 6 C-14 5.01 -14 4.02 -14 3 C-9.13507436 0.61717928 -5.540694 -0.73178977 0 0 Z M-6 3 C-6.33 5.64 -6.66 8.28 -7 11 C-6.01 11 -5.02 11 -4 11 C-2.14697958 9.30723357 -2.14697958 9.30723357 -1 7 C-1.21717352 4.79199472 -1.21717352 4.79199472 -2 3 C-3.32 3 -4.64 3 -6 3 Z " fill="#0E2A52" transform="translate(37,163)"/>
<path d="M0 0 C0.20056924 3.74941687 0.38295585 7.49952221 0.5625 11.25 C0.64661133 12.81621094 0.64661133 12.81621094 0.73242188 14.4140625 C1.06967203 21.69866595 0.77975283 28.75049402 0 36 C-4.96622349 36.02465098 -9.93241166 36.04283649 -14.89868164 36.05493164 C-16.58944316 36.0599719 -18.28020029 36.06680405 -19.97094727 36.07543945 C-22.39600707 36.08751857 -24.82100944 36.09323123 -27.24609375 36.09765625 C-28.38672523 36.10539818 -28.38672523 36.10539818 -29.55039978 36.11329651 C-31.3673257 36.11349238 -33.18413127 36.06197277 -35 36 C-37.23235009 33.76764991 -36.18531482 28.62306334 -36.1875 25.625 C-36.19974609 24.7484375 -36.21199219 23.871875 -36.22460938 22.96875 C-36.22654297 22.12570313 -36.22847656 21.28265625 -36.23046875 20.4140625 C-36.23457764 19.6401416 -36.23868652 18.8662207 -36.24291992 18.06884766 C-36 16 -36 16 -34 13 C-33.17485216 15.83384108 -32.92063767 18.16935251 -33.12109375 21.109375 C-33.16419678 21.78967773 -33.2072998 22.46998047 -33.25170898 23.17089844 C-33.31302002 24.02200195 -33.37433105 24.87310547 -33.4375 25.75 C-33.623125 28.4725 -33.80875 31.195 -34 34 C-17.665 34.495 -17.665 34.495 -1 35 C-1 24.11 -1 13.22 -1 2 C-8.425 3.485 -8.425 3.485 -16 5 C-20.00222119 5.80044424 -23.96005961 6.44549838 -28 7 C-28.33 6.34 -28.66 5.68 -29 5 C-25.79199093 4.35254908 -22.58353661 3.70733107 -19.375 3.0625 C-18.47136719 2.88009766 -17.56773438 2.69769531 -16.63671875 2.50976562 C-4.13352273 0 -4.13352273 0 0 0 Z " fill="#13315B" transform="translate(106,46)"/>
<path d="M0 0 C0.66 0.33 1.32 0.66 2 1 C-0.96558957 19.68321428 -18.0265638 34.37767586 -32.36328125 45.41015625 C-33.23339844 45.93480469 -34.10351562 46.45945313 -35 47 C-35.99 46.67 -36.98 46.34 -38 46 C-34.91027632 42.72414839 -31.57212762 40.14978927 -27.9375 37.5 C-15.16549439 27.8821339 -4.36176341 15.6510334 0 0 Z " fill="#1D3749" transform="translate(152,87)"/>
<path d="M0 0 C11.22 0 22.44 0 34 0 C35 2 35 2 34.0625 5.125 C33.5365625 6.548125 33.5365625 6.548125 33 8 C32.06576355 4.98968256 31.95550089 4.13349732 33 1 C22.44 1 11.88 1 1 1 C1.103125 6.23875 1.20625 11.4775 1.3125 16.875 C1.33739502 18.52741699 1.36229004 20.17983398 1.38793945 21.88232422 C1.42105225 23.1767041 1.45416504 24.47108398 1.48828125 25.8046875 C1.49452515 26.48539307 1.50076904 27.16609863 1.50720215 27.86743164 C1.53953996 30.04238705 1.53953996 30.04238705 2 33 C2.99 33.66 3.98 34.32 5 35 C5.66 34.01 6.32 33.02 7 32 C7.66 32.33 8.32 32.66 9 33 C9 32.34 9 31.68 9 31 C9.66 31 10.32 31 11 31 C9.55661511 34.415759 7.75105832 36.36026263 4.9375 38.75 C3.86822266 39.67039062 3.86822266 39.67039062 2.77734375 40.609375 C1 42 1 42 0 42 C0 28.14 0 14.28 0 0 Z " fill="#699455" transform="translate(114,88)"/>
<path d="M0 0 C0.99 0.495 0.99 0.495 2 1 C1.67 1.99 1.34 2.98 1 4 C1.66 4 2.32 4 3 4 C3.33 3.34 3.66 2.68 4 2 C4.33 2.99 4.66 3.98 5 5 C7.50447516 6.21869929 7.50447516 6.21869929 10 7 C9.01 7.33 8.02 7.66 7 8 C7 8.99 7 9.98 7 11 C9.31 11.33 11.62 11.66 14 12 C13.67 13.32 13.34 14.64 13 16 C8.71 16 4.42 16 0 16 C0 10.72 0 5.44 0 0 Z " fill="#61A641" transform="translate(93,142)"/>
<path d="M0 0 C3 1 3 1 3.94921875 2.7578125 C7.34412561 13.6430694 6.88964223 25.03483976 4 36 C3.34 36 2.68 36 2 36 C2.06900513 35.11030518 2.06900513 35.11030518 2.1394043 34.20263672 C3.01379555 22.26609878 3.49883076 11.58369958 0 0 Z " fill="#172E4E" transform="translate(151,52)"/>
<path d="M0 0 C0 0.99 0 1.98 0 3 C0.66 3 1.32 3 2 3 C2.33 4.32 2.66 5.64 3 7 C3.99 7 4.98 7 6 7 C5.67 7.99 5.34 8.98 5 10 C2.525 9.01 2.525 9.01 0 8 C-0.33 8.99 -0.66 9.98 -1 11 C-2.65 10.67 -4.3 10.34 -6 10 C-6.625 8.1875 -6.625 8.1875 -7 6 C-3 0 -3 0 0 0 Z M-2 2 C-1 5 -1 5 -1 5 Z " fill="#0A2F5F" transform="translate(43,173)"/>
<path d="M0 0 C1.8150957 0.03787519 3.62886085 0.15492026 5.4375 0.3125 C6.92056641 0.43044922 6.92056641 0.43044922 8.43359375 0.55078125 C11 1 11 1 13 3 C13 3.99 13 4.98 13 6 C11.68 6 10.36 6 9 6 C9 5.34 9 4.68 9 4 C7.35 3.67 5.7 3.34 4 3 C4 5.31 4 7.62 4 10 C4.66 10.33 5.32 10.66 6 11 C3 11 3 11 1 10 C1 8.68 1 7.36 1 6 C0.34 6 -0.32 6 -1 6 C-1.042721 4.33388095 -1.04063832 2.66617115 -1 1 C-0.67 0.67 -0.34 0.34 0 0 Z " fill="#67A645" transform="translate(117,140)"/>
<path d="M0 0 C3.8665284 3.222107 4.88059018 6.14922412 6 11 C5.01 11 4.02 11 3 11 C2.67 11.66 2.34 12.32 2 13 C0.68 12.67 -0.64 12.34 -2 12 C-2 2 -2 2 0 0 Z " fill="#0E2D5B" transform="translate(27,172)"/>
<path d="M0 0 C-3.07911516 7.47785109 -12.89857506 15.22788052 -20 19 C-20.99 18.67 -21.98 18.34 -23 18 C-19.29335294 14.07531488 -15.08194633 10.93206868 -10.77734375 7.7109375 C-8.26939179 5.81397151 -5.92957617 3.92861146 -3.71875 1.6875 C-2 0 -2 0 0 0 Z " fill="#1B3844" transform="translate(137,115)"/>
<path d="M0 0 C3.25666272 0.56149357 4.95623323 1.37229986 7 4 C7.75 6.125 7.75 6.125 8 8 C7 9 7 9 4.5625 9.25 C3.716875 9.1675 2.87125 9.085 2 9 C1.34 8.01 0.68 7.02 0 6 C-2.05925139 5.27617533 -2.05925139 5.27617533 -4 5 C-3.67 4.01 -3.34 3.02 -3 2 C-2.01 2 -1.02 2 0 2 C0 1.34 0 0.68 0 0 Z " fill="#699F4B" transform="translate(76,139)"/>
<path d="M0 0 C0.99 0.66 1.98 1.32 3 2 C3.33 1.67 3.66 1.34 4 1 C5.66617115 0.95936168 7.33388095 0.957279 9 1 C8.67 1.99 8.34 2.98 8 4 C8 4.99 8 5.98 8 7 C7.67 7.66 7.34 8.32 7 9 C6.443125 8.814375 5.88625 8.62875 5.3125 8.4375 C2.600867 7.92448835 0.65628961 8.3359276 -2 9 C-1.34 6.69 -0.68 4.38 0 2 C-0.66 1.67 -1.32 1.34 -2 1 C-1.34 0.67 -0.68 0.34 0 0 Z " fill="#073165" transform="translate(76,173)"/>
<path d="M0 0 C2.12046792 3.53411321 2.53199289 6.94393835 3 11 C0.3125 11.375 0.3125 11.375 -3 11 C-5.06398076 9.176017 -6.39041053 7.27236161 -8 5 C-5 4 -5 4 -2 4 C-2 3.34 -2 2.68 -2 2 C-1.34 2 -0.68 2 0 2 C0 1.34 0 0.68 0 0 Z " fill="#6AA34A" transform="translate(153,148)"/>
<path d="M0 0 C1.875 0.8125 1.875 0.8125 2.875 2.8125 C3.535 2.8125 4.195 2.8125 4.875 2.8125 C4.34430939 6.63347239 3.37798434 8.87421403 0.875 11.8125 C-1.125 10.8125 -1.125 10.8125 -2.125 8.8125 C-1.465 8.4825 -0.805 8.1525 -0.125 7.8125 C-0.785 6.4925 -1.445 5.1725 -2.125 3.8125 C-1.465 3.4825 -0.805 3.1525 -0.125 2.8125 C-1.775 2.8125 -3.425 2.8125 -5.125 2.8125 C-2.68543956 -0.23695055 -2.68543956 -0.23695055 0 0 Z " fill="#0B244C" transform="translate(85.125,171.1875)"/>
<path d="M0 0 C1.32 0.33 2.64 0.66 4 1 C3.67 1.99 3.34 2.98 3 4 C2.01 3.67 1.02 3.34 0 3 C-1.59901088 8.59653809 -2.1000659 13.19617792 -2 19 C-2.33 19.66 -2.66 20.32 -3 21 C-3.99 20.67 -4.98 20.34 -6 20 C-4.9706067 12.75361298 -3.32399717 6.53504298 0 0 Z " fill="#112F55" transform="translate(156,163)"/>
<path d="M0 0 C0 0.99 0 1.98 0 3 C0.66 3 1.32 3 2 3 C2 3.99 2 4.98 2 6 C1.01 6 0.02 6 -1 6 C-1.33 7.32 -1.66 8.64 -2 10 C-3.32 10.33 -4.64 10.66 -6 11 C-6.36601307 3.5577342 -6.36601307 3.5577342 -4.6875 1 C-3 0 -3 0 0 0 Z " fill="#113158" transform="translate(135,165)"/>
<path d="M0 0 C0.99 0.66 1.98 1.32 3 2 C3.328125 4.09375 3.328125 4.09375 3.25 6.5 C3.23453125 7.2940625 3.2190625 8.088125 3.203125 8.90625 C3 11 3 11 2 13 C1.01 12.67 0.02 12.34 -1 12 C-0.67 10.02 -0.34 8.04 0 6 C-1.32 6 -2.64 6 -4 6 C-2.25 1.125 -2.25 1.125 0 0 Z " fill="#0C2E55" transform="translate(164,163)"/>
<path d="M0 0 C1.98 0 3.96 0 6 0 C6.33 0.66 6.66 1.32 7 2 C4.68421053 6.31578947 4.68421053 6.31578947 3 8 C-0.03256065 8.36849841 -2.97243925 8.42003996 -6 8 C-8.0625 6 -8.0625 6 -9 4 C-7.68 4.33 -6.36 4.66 -5 5 C-5 5.66 -5 6.32 -5 7 C-1.535 6.505 -1.535 6.505 2 6 C2 5.34 2 4.68 2 4 C2.66 4 3.32 4 4 4 C4 3.34 4 2.68 4 2 C2.68 2 1.36 2 0 2 C0 1.34 0 0.68 0 0 Z " fill="#6F9856" transform="translate(77,151)"/>
<path d="M0 0 C0.144375 0.763125 0.28875 1.52625 0.4375 2.3125 C0.9632594 5.08172908 0.9632594 5.08172908 2 8 C-0.875 7.75 -0.875 7.75 -4 7 C-5.375 4.9375 -5.375 4.9375 -6 3 C-3.375 0 -3.375 0 0 0 Z " fill="#0E284C" transform="translate(99,177)"/>
<path d="M0 0 C0.99 0 1.98 0 3 0 C4.125 2.8125 4.125 2.8125 5 6 C4.01 7.485 4.01 7.485 3 9 C0.83125748 8.49396008 -0.99967627 8.00016187 -3 7 C-3 6.34 -3 5.68 -3 5 C-1.68 5 -0.36 5 1 5 C0.67 3.35 0.34 1.7 0 0 Z " fill="#0C3165" transform="translate(111,173)"/>
<path d="M0 0 C-0.61609051 4.00458831 -2.55060653 6.83019669 -5 10 C-5.99 10 -6.98 10 -8 10 C-8 9.34 -8 8.68 -8 8 C-7.34 7.67 -6.68 7.34 -6 7 C-6.33 6.34 -6.66 5.68 -7 5 C-2.25 0 -2.25 0 0 0 Z " fill="#0E2751" transform="translate(66,174)"/>
<path d="M0 0 C-0.165 0.763125 -0.33 1.52625 -0.5 2.3125 C-1.09145396 5.03596236 -1.09145396 5.03596236 -1 8 C-1.99 8 -2.98 8 -4 8 C-4.66 5.36 -5.32 2.72 -6 0 C-3 -1 -3 -1 0 0 Z " fill="#093164" transform="translate(198,174)"/>
<path d="M0 0 C2.5390625 1.171875 2.5390625 1.171875 5.078125 2.34375 C7.29242836 3.21542924 7.29242836 3.21542924 11 3 C11 2.34 11 1.68 11 1 C11.66 1.33 12.32 1.66 13 2 C12.67 2.99 12.34 3.98 12 5 C7.71 5 3.42 5 -1 5 C-0.67 3.35 -0.34 1.7 0 0 Z " fill="#6AA54B" transform="translate(94,153)"/>
<path d="M0 0 C0.33 0 0.66 0 1 0 C1 5.28 1 10.56 1 16 C-0.65 14.68 -2.3 13.36 -4 12 C-4 11.34 -4 10.68 -4 10 C-2.68 10 -1.36 10 0 10 C0 6.7 0 3.4 0 0 Z " fill="#13325B" transform="translate(105,114)"/>
<path d="M0 0 C0.598125 0.61875 1.19625 1.2375 1.8125 1.875 C4.00811144 4.13676954 4.00811144 4.13676954 7 6 C4.03 6.66 1.06 7.32 -2 8 C-2 6.02 -2 4.04 -2 2 C-1.34 2 -0.68 2 0 2 C0 1.34 0 0.68 0 0 Z " fill="#6BAA44" transform="translate(96,144)"/>
<path d="M0 0 C2.8125 0.125 2.8125 0.125 6 1 C7.875 4.0625 7.875 4.0625 9 7 C8.443125 6.690625 7.88625 6.38125 7.3125 6.0625 C4.87459567 4.94238179 2.63775814 4.43962636 0 4 C0 2.68 0 1.36 0 0 Z " fill="#0D2A57" transform="translate(156,178)"/>
<path d="M0 0 C1.98 0 3.96 0 6 0 C7.5625 2.8125 7.5625 2.8125 9 6 C8.67 6.99 8.34 7.98 8 9 C7.67 7.35 7.34 5.7 7 4 C4.69 3.34 2.38 2.68 0 2 C0 1.34 0 0.68 0 0 Z " fill="#6C9457" transform="translate(144,139)"/>
<path d="M0 0 C0.99 0.33 1.98 0.66 3 1 C2.34 2.32 1.68 3.64 1 5 C0.34 5 -0.32 5 -1 5 C-1 6.32 -1 7.64 -1 9 C-2.98 9 -4.96 9 -7 9 C-6 7 -6 7 -3 6 C-3 5.34 -3 4.68 -3 4 C-2.34 3.67 -1.68 3.34 -1 3 C-0.67 2.01 -0.34 1.02 0 0 Z " fill="#0A3469" transform="translate(171,173)"/>
<path d="M0 0 C0 1.65 0 3.3 0 5 C-0.33 3.68 -0.66 2.36 -1 1 C-3.97 1.66 -6.94 2.32 -10 3 C-9.67 2.01 -9.34 1.02 -9 0 C-3.375 -1.125 -3.375 -1.125 0 0 Z " fill="#0D294F" transform="translate(127,172)"/>
<path d="M0 0 C-0.33 0.99 -0.66 1.98 -1 3 C-2.98 3 -4.96 3 -7 3 C-7.33 3.99 -7.66 4.98 -8 6 C-8.33 5.01 -8.66 4.02 -9 3 C-6.38997624 -0.48003168 -4.1689578 -0.27793052 0 0 Z " fill="#0B274E" transform="translate(62,172)"/>
<path d="M0 0 C0.66 0 1.32 0 2 0 C4 3 4 3 4 7 C2.68 6.67 1.36 6.34 0 6 C0 4.02 0 2.04 0 0 Z " fill="#0C3062" transform="translate(36,165)"/>
<path d="M0 0 C2 3 2 3 2 7 C0.02 7 -1.96 7 -4 7 C-4 6.34 -4 5.68 -4 5 C-3.01 4.34 -2.02 3.68 -1 3 C-0.67 2.01 -0.34 1.02 0 0 Z " fill="#6E9655" transform="translate(154,152)"/>
<path d="M0 0 C1.98 0.66 3.96 1.32 6 2 C4.75 3.5625 4.75 3.5625 3 5 C0.8125 4.6875 0.8125 4.6875 -1 4 C-0.67 2.68 -0.34 1.36 0 0 Z " fill="#082E6B" transform="translate(55,178)"/>
<path d="M0 0 C0 3 0 3 -2.5 5.6875 C-3.325 6.450625 -4.15 7.21375 -5 8 C-4.67 5.69 -4.34 3.38 -4 1 C-2.68 0.67 -1.36 0.34 0 0 Z " fill="#669A51" transform="translate(142,101)"/>
<path d="M0 0 C0.99 0.33 1.98 0.66 3 1 C3 3.31 3 5.62 3 8 C2.01 8 1.02 8 0 8 C0 5.36 0 2.72 0 0 Z " fill="#093261" transform="translate(178,170)"/>
<path d="M0 0 C1.32 0.33 2.64 0.66 4 1 C4 2.32 4 3.64 4 5 C2.02 5 0.04 5 -2 5 C-1.34 3.35 -0.68 1.7 0 0 Z " fill="#6F9C57" transform="translate(102,140)"/>
<path d="M0 0 C0 0.66 0 1.32 0 2 C-3.3 2.33 -6.6 2.66 -10 3 C-5.78492722 -0.16130459 -4.93928888 -0.3367697 0 0 Z " fill="#162F50" transform="translate(99,42)"/>
<path d="M0 0 C0.66 0 1.32 0 2 0 C2 0.99 2 1.98 2 3 C2.99 3.33 3.98 3.66 5 4 C5 4.33 5 4.66 5 5 C3.02 5 1.04 5 -1 5 C-0.67 3.35 -0.34 1.7 0 0 Z " fill="#6AA845" transform="translate(118,152)"/>
<path d="M0 0 C3.65316671 1.24976756 4.78065836 1.67098753 7 5 C6.01 5.495 6.01 5.495 5 6 C3.2925002 4.71937515 1.62626404 3.38232443 0 2 C0 1.34 0 0.68 0 0 Z " fill="#0E1F3D" transform="translate(96,126)"/>
<path d="M0 0 C-1.28519565 2.86697492 -2.57129254 4.97607712 -5 7 C-5.66 7 -6.32 7 -7 7 C-3.86206897 0 -3.86206897 0 0 0 Z " fill="#182A39" transform="translate(137,115)"/>
<path d="M0 0 C0.99 0 1.98 0 3 0 C3 1.65 3 3.3 3 5 C1.35 5.33 -0.3 5.66 -2 6 C-2 5.34 -2 4.68 -2 4 C-1.01 4 -0.02 4 1 4 C0.67 2.68 0.34 1.36 0 0 Z " fill="#6D9652" transform="translate(102,146)"/>
<path d="M0 0 C0.99 0.33 1.98 0.66 3 1 C2.34 1 1.68 1 1 1 C1.33 2.98 1.66 4.96 2 7 C1.01 6.67 0.02 6.34 -1 6 C-1.8125 4.0625 -1.8125 4.0625 -2 2 C-1.34 1.34 -0.68 0.68 0 0 Z " fill="#62AA41" transform="translate(125,113)"/>
<path d="M0 0 C1.5625 1.8125 1.5625 1.8125 3 4 C2.67 4.99 2.34 5.98 2 7 C0.68 5.68 -0.64 4.36 -2 3 C-1.34 2.01 -0.68 1.02 0 0 Z " fill="#123A6B" transform="translate(27,172)"/>
<path d="M0 0 C0.66 0.33 1.32 0.66 2 1 C2 2.65 2 4.3 2 6 C0.35 5.67 -1.3 5.34 -3 5 C-2.67 4.01 -2.34 3.02 -2 2 C-1.34 2 -0.68 2 0 2 C0 1.34 0 0.68 0 0 Z " fill="#0A2C59" transform="translate(77,169)"/>
<path d="M0 0 C0.99 0 1.98 0 3 0 C3 0.99 3 1.98 3 3 C1.68 3 0.36 3 -1 3 C-1 3.99 -1 4.98 -1 6 C-1.66 6 -2.32 6 -3 6 C-1.125 1.125 -1.125 1.125 0 0 Z " fill="#0E2243" transform="translate(188,168)"/>
<path d="M0 0 C1.98 0 3.96 0 6 0 C6.33 0.99 6.66 1.98 7 3 C5.02 3 3.04 3 1 3 C0.67 2.01 0.34 1.02 0 0 Z " fill="#63A942" transform="translate(77,143)"/>
<path d="M0 0 C0 0.66 0 1.32 0 2 C-2.64 2.99 -5.28 3.98 -8 5 C-5.96115496 0.48541456 -5.19128917 0 0 0 Z " fill="#6F9453" transform="translate(76,139)"/>
<path d="M0 0 C0.66 0.66 1.32 1.32 2 2 C0.35 3.65 -1.3 5.3 -3 7 C-3.33 6.34 -3.66 5.68 -4 5 C-2.68 3.35 -1.36 1.7 0 0 Z " fill="#27434F" transform="translate(140,109)"/>
<path d="" fill="#000000" transform="translate(0,0)"/>
</svg>
